<svg xmlns="http://www.w3.org/2000/svg" width="206.721" height="171.431" viewBox="0 0 206.721 171.431">
    <defs>
        <style>
            .cls-2{fill:none;stroke:#000;stroke-linecap:round;stroke-linejoin:round;stroke-width:2.52px}
        </style>
    </defs>
    <g id="stych-code" transform="translate(1.28)">
        <path id="Tracé_1299" fill="#edff00" d="M1808.2 1124.3l-27.753-4.049-12.415-25.2a25.419 25.419 0 0 0-45.562 0l-12.4 25.2-27.771 4.049a25.384 25.384 0 0 0-14.061 43.31l20.159 19.572-4.771 27.653a25.4 25.4 0 0 0 36.843 26.779l24.83-13.053 24.83 13.053a25.4 25.4 0 0 0 36.843-26.779l-4.738-27.653 20.16-19.572a25.385 25.385 0 0 0-14.078-43.31" transform="translate(-1641.542 -1080.905)"/>
        <path id="Tracé_1300" d="M1799.653 1184.464c2.251-.6 5.762 2.722 7.241 4.167 3.36 3.359 7.156 7.542 10.5 10.953 4.384 4.469 8.4 8.988 12.5 13.188" class="cls-2" transform="translate(-1641.542 -1080.905)"/>
        <path id="Tracé_1301" fill="#36f" d="M1797.771 1162.607a76.711 76.711 0 0 0-27.687 7.745 116.155 116.155 0 0 0-23.654 15.255c-3.444-2.269-6.115-3.915-8.148-5.041a95.147 95.147 0 0 0-18.765-7.493c-3.495-1.008-7.56-2.15-11.643-3.057l-1.9-.437a45.868 45.868 0 0 0-9.392-1.512 1.244 1.244 0 0 0-1.243 1.159c0 .185-.352 4.335-.352 6.451v10.954c0 1.68-.135 3.36-.236 5.04s-.252 3.663-.252 5.561v.5c2.621-.521 5.276-.975 7.8-1.445 5.039-.941 10.079-2.453 15.12-2.906 2.587-.219 6.518-1.159 9.021-.32.454 2.269-4.2 3.562-5.124 5.276a65.267 65.267 0 0 1 17.859 2.587c1.562.42 4.2.991 5.308 2.268 1.815 2.066-1.68 1.831-3.107 1.68-2.974-.2-5.964-1.21-8.9-1.294 2.688.168 4.838 1.815 7.324 2.588a13.673 13.673 0 0 1 4.587 2.217c.89.655 3.36 2.453 1.377 3.091-1.377.454-4.872-.638-6.3-.974l-2.621-.538c2.84 1.076 6.6 3.075 6.049 4.889-.2.638-9.594-1.243-11.089-1.478 1.932.5 6.721 2.184 6.721 4.653a10.643 10.643 0 0 1-3.663.185 67.035 67.035 0 0 0-22.865 4.586c-1.8.689-3.578 1.193-5.376 1.916-2.469.974-5.04 1.9-7.56 2.721l1.21.723h.084c3.965 2 7.963 4.334 11.676 6.569 1.68 1.007 3.36 1.982 5.04 2.973 3.9 2.251 7.93 4.6 11.659 7.224 1.327.924 2.621 1.865 3.931 2.823s2.873 2.1 4.335 3.107a7.286 7.286 0 0 0 4.283 1.479 10.435 10.435 0 0 0 4.5-1.26c1.478-.722 2.94-1.462 4.4-2.218 2.7-1.377 5.51-2.805 8.316-4.032a155.485 155.485 0 0 1 15.12-5.258 59.923 59.923 0 0 1 15.355-2.47 1.26 1.26 0 0 0 1.193-.941s1.343-5.376 1.68-6.887c.151-.588.336-1.143.52-1.681a15.586 15.586 0 0 0 .773-3.024l.185-1.007c-3.024-2.268-6.048-4.536-8.887-6.989s-5.948-4.94-8.619-7.678c-.873-.907-2.99-2.6-2.385-3.982a8.712 8.712 0 0 1 5.561 2.352c-2.134-2.251-4.788-4-6.905-6.249-1.076-1.159-1.58-2.05-.907-3.511 3.36-.706 6.989 3.359 9.575 4.956-2.788-2.806-6.535-5.04-8.954-8.182-1.394-1.814-.739-2.688 1.277-3.091a7.911 7.911 0 0 1 4.351.453l-1.159-.738c-1.26-.857-3.7-2.067-1.848-3.563 1.209-.974 4.57-.621 6.065-.47a81.994 81.994 0 0 1 18.782 3.528l.168-.856a37.935 37.935 0 0 1 1.8-7.98l.336-1.093c.857-2.872 1.6-5.745 2.184-8.534.454-2.184 1.445-7.342 1.445-7.342a1.184 1.184 0 0 0 0-.42c-.068-.806-.252-2.016-7.426-1.562" transform="translate(-1641.542 -1080.905)"/>
        <path id="Tracé_1302" d="M1799 1159.045c-8.619 0-18.48 3.242-25.015 6.216a198.754 198.754 0 0 0-19.285 10.639c-1.478.89-6.888 4.25-8.131 5.342 0 0-5.04-3.041-7.392-4.385-7.98-4.553-17.22-7.342-26.091-9.61-1.679-.4-6.35-1.679-8.013-1.931" class="cls-2" transform="translate(-1641.542 -1080.905)"/>
        <path id="Tracé_1303" d="M1746.094 1192.83c-.252 1.462-.235 3.058-.487 4.5" class="cls-2" transform="translate(-1641.542 -1080.905)"/>
        <path id="Tracé_1304" d="M1743.188 1226.766s-1.025 6.115-1.277 9.005c-.219 2.285-.655 7.073-.655 7.073" class="cls-2" transform="translate(-1641.542 -1080.905)"/>
        <path id="Ligne_3" d="M0 1.63L0 0" class="cls-2" transform="translate(93.447 71.369)"/>
        <path id="Ligne_4" d="M0 1.63L0 0" class="cls-2" transform="translate(110.248 71.369)"/>
        <path id="Tracé_1305" d="M1751.722 1162.909a11.945 11.945 0 0 1-11.256 2.251" class="cls-2" transform="translate(-1641.542 -1080.905)"/>
        <path id="Tracé_1306" d="M1800.291 1190.73a78.211 78.211 0 0 0-19.773-3.864c-1.5-.151-4.856-.5-6.065.47-1.849 1.5.588 2.706 1.848 3.562 2.57 1.68 5.292 3.192 7.929 4.755-3.074-2.184-7.157-5.276-11.121-4.469-2.016.4-2.672 1.276-1.277 3.091 2.419 3.175 6.166 5.376 8.954 8.182-2.587-1.563-6.149-5.662-9.576-4.956-.672 1.461-.168 2.352.908 3.511 2.116 2.251 4.771 4 6.9 6.249a8.707 8.707 0 0 0-5.561-2.352c-.605 1.378 1.513 3.075 2.386 3.982 2.671 2.738 5.729 5.208 8.618 7.678 5.04 4.3 10.568 8.114 15.776 12.2a137.985 137.985 0 0 0 17.119 11.44c4.418 2.5 9.206 4.536 14.313 3.142 3.9-1.058 8.7-3.646 10.668-7.409 2.957-5.662 3.545-10.7 3.361-17.136a35.667 35.667 0 0 0-4.536-15.573 98.146 98.146 0 0 0-14.482-19.606 156.42 156.42 0 0 0-18.111-15.574" class="cls-2" transform="translate(-1641.542 -1080.905)"/>
        <path id="Tracé_1307" d="M1685.766 1166.538c-5.04 2.806-10.618 6.065-15.523 9.442-8.585 5.913-16.565 13.2-21.84 22.277-2.352 4.015-5.208 8.668-6.2 13.272-1.394 6.551-.94 16.044 4.889 20.529s13.81 5.611 21.017 5.04c5.141-.386 9.374-2.369 14.129-3.981 5.359-1.831 10.685-3.747 16.077-5.477 2.772-.908 5.6-1.915 8.316-2.991 1.8-.722 3.579-1.226 5.377-1.915a67.024 67.024 0 0 1 22.864-4.586 10.667 10.667 0 0 0 3.663-.185c0-2.469-4.771-4.15-6.72-4.654 1.5.235 10.886 2.117 11.088 1.479.806-2.638-7.426-5.628-8.821-5.662a36.519 36.519 0 0 0 5.393 1.31c1.428.336 4.923 1.429 6.3.975 1.966-.639-.487-2.436-1.377-3.091a13.688 13.688 0 0 0-4.587-2.218c-2.486-.772-4.636-2.419-7.324-2.587 2.94.084 5.93 1.092 8.9 1.294 1.36 0 4.922.319 3.107-1.68-1.108-1.277-3.746-1.848-5.308-2.268a65.3 65.3 0 0 0-17.859-2.588c.924-1.68 5.578-3.007 5.124-5.275-2.5-.84-6.434.1-9.021.319-5.04.454-10.08 1.966-15.12 2.907s-25.318 6.216-30.442 7.274" class="cls-2" transform="translate(-1641.542 -1080.905)"/>
    </g>
</svg>
