<svg xmlns="http://www.w3.org/2000/svg" width="197.737" height="171.43" viewBox="0 0 197.737 171.43">
    <defs>
        <style>
            .cls-2{fill:#36f}.cls-3,.cls-4{fill:none;stroke-linecap:round;stroke-linejoin:round;stroke-width:2.52px}.cls-3{stroke:#36f}.cls-4{stroke:#000}
        </style>
    </defs>
    <g id="stych-conduite">
        <path id="Tracé_1308" fill="#edff00" d="M296.779 469.057l-29.121-3.108-14.034-25.656a26.569 26.569 0 0 0-47.522 1.745L194.209 468.6l-28.805 5.24a26.364 26.364 0 0 0-13 45.549l21.717 19.544-3.859 28.9a26.508 26.508 0 0 0 39.488 26.512l25.4-14.513 26.419 12.592a26.559 26.559 0 0 0 35.364-12.38 26.291 26.291 0 0 0 2.037-16.856l-6.018-28.538 20.192-21.115a26.4 26.4 0 0 0-16.367-44.466" transform="translate(-143.675 -426.447)"/>
        <path id="Tracé_1309" d="M297.154 548.226c-5.9-.807-9.189 2.486-11.021 7.728l15.238-.42a5.378 5.378 0 0 0-4.217-7.308" class="cls-2" transform="translate(-137.527 -421.39)"/>
        <path id="Tracé_1310" d="M297.154 548.226c-5.9-.807-9.189 2.486-11.021 7.728l15.238-.42a5.378 5.378 0 0 0-4.217-7.308z" class="cls-3" transform="translate(-137.527 -421.39)"/>
        <path id="Tracé_1311" d="M317.045 550.057a9.938 9.938 0 0 1-3.36-.454l-.235.807a68.1 68.1 0 0 1-2.856 6.2l8.887-.219a34.992 34.992 0 0 0 2.083-5.9l.723-1.378a17.661 17.661 0 0 1-5.242.941" class="cls-2" transform="translate(-136.192 -421.359)"/>
        <path id="Tracé_1312" d="M317.045 550.057a9.938 9.938 0 0 1-3.36-.454l-.235.807a68.1 68.1 0 0 1-2.856 6.2l8.887-.219a34.992 34.992 0 0 0 2.083-5.9l.723-1.378a17.661 17.661 0 0 1-5.242.944z" class="cls-3" transform="translate(-136.192 -421.359)"/>
        <path id="Tracé_1313" d="M311.349 524.117a3.981 3.981 0 0 1 .538-.622 14.545 14.545 0 0 1 8.87-3.359l-.5-.689c-3.545-4.822-10.97-6.838-17.371-6.032a36.479 36.479 0 0 0-19.1 9.022 54.406 54.406 0 0 0-11.424 14.129c-3.225 5.561-6.115 12.835-6.165 19.4l11.961.655s.925-5.561 1.395-7.341c1.915-7.527 5.628-15.927 11.306-21.252a23.619 23.619 0 0 1 12.23-5.41 12.445 12.445 0 0 1 7.93 1.226z" class="cls-2" transform="translate(-136.192 -421.784)"/>
        <path id="Tracé_1314" d="M311.349 524.117a3.981 3.981 0 0 1 .538-.622 14.545 14.545 0 0 1 8.87-3.359l-.5-.689c-3.545-4.822-10.97-6.838-17.371-6.032a36.479 36.479 0 0 0-19.1 9.022 54.406 54.406 0 0 0-11.424 14.129c-3.225 5.561-6.115 12.835-6.165 19.4l11.961.655s.925-5.561 1.395-7.341c1.915-7.527 5.628-15.927 11.306-21.252a23.619 23.619 0 0 1 12.23-5.41 12.445 12.445 0 0 1 7.93 1.226z" class="cls-3" transform="translate(-136.192 -421.784)"/>
        <path id="Tracé_1315" d="M340.152 556.81H227.365c-2.009 0-4.072-.1-6.082 0-5.454.286-10.207 3.142-15.119 5.141-9.578 3.931-19.226 8.954-29.713 9.66-6.694.437-13 0-18.491-4a25.261 25.261 0 0 1-8.739-11.642 33.26 33.26 0 0 1 2.342-27.569 114.669 114.669 0 0 1 12.759-18.4" class="cls-4" transform="translate(-143.675 -419.919)"/>
        <path id="Tracé_1316" d="M176.11 541.371c2.453-1.126 19.354-3.495 23.251-4.268a147.426 147.426 0 0 1 15.574-1.948c10.684-.74 19.571 3.746 26.258 12.112 2.234 2.79 4.4 6.973 4.4 9.123" class="cls-4" transform="translate(-141.644 -421.508)"/>
        <path id="Tracé_1317" d="M226.09 545.017a18.941 18.941 0 0 1 7.778 4.721c1.344 1.209 3.528 4.7 3.36 6.72" class="cls-4" transform="translate(-140.207 -421.403)"/>
        <path id="Tracé_1318" d="M219.823 548.242c2.285.924 9.71 5.191 9.021 8.4" class="cls-4" transform="translate(-140.508 -421.366)"/>
        <path id="Ligne_5" d="M0.269 2.57L0 0" class="cls-4" transform="translate(70.277 58.381)"/>
        <path id="Ligne_6" d="M0.017 2.386L0 0" class="cls-4" transform="translate(87.983 58.413)"/>
        <path id="Tracé_1319" d="M206.283 493.878c3.208 5.208 9.677 6.014 15.977 4.3" class="cls-4" transform="translate(-140.967 -423.692)"/>
        <path id="Tracé_1320" d="M317.045 550.057a16.151 16.151 0 0 0 7.913-2.184 10.665 10.665 0 0 0 3.209-3.444c2.755-4.788 2.789-12.4 1.562-17.64-.941-3.965-2.57-5.628-6.485-6.435a14.365 14.365 0 0 0-11.373 3.209c-1.932 1.765-3.159 7.14.638 7.51-2.4 1.8-4.469 6.3-1.126 7.728a2.756 2.756 0 0 0-1.428 3.108c.269 1.764 1.059 2.3 2.974 2.52-3.142 4.317.437 5.678 4.116 5.628z" class="cls-4" transform="translate(-136.192 -421.915)"/>
        <path id="Tracé_1321" d="M308.863 527.226a5.761 5.761 0 0 0-4.736 6.631l.015.089c.135 1.982 2.587 5.8 4.721 3.8" class="cls-4" transform="translate(-136.192 -422.17)"/>
        <path id="Tracé_1322" d="M312.509 531.073a21.386 21.386 0 0 0 11.189-1.26" class="cls-4" transform="translate(-136.192 -422.317)"/>
        <path id="Tracé_1323" d="M311.014 538.381a24.523 24.523 0 0 0 12.684-1.008" class="cls-4" transform="translate(-136.192 -422.017)"/>
        <path id="Tracé_1324" d="M312.929 544.429a14.548 14.548 0 0 0 9.022-1.059" class="cls-4" transform="translate(-136.192 -421.78)"/>
    </g>
</svg>
